<svg width="29" height="29" viewBox="0 0 29 29" fill="none" xmlns="http://www.w3.org/2000/svg">
<path d="M28.6034 9.90024L26.3604 7.65727C25.828 7.12485 24.9671 7.12485 24.4403 7.65727L10.8749 21.2227L4.56514 14.9073C4.03271 14.3749 3.17178 14.3749 2.64502 14.9073L0.396387 17.1559C-0.136035 17.6883 -0.136035 18.5493 0.396387 19.0817L9.91201 28.603C10.4444 29.1354 11.3054 29.1354 11.8321 28.603L28.5978 11.826C29.1302 11.2879 29.1302 10.427 28.6034 9.90024ZM10.2349 15.9041C10.586 16.261 11.1638 16.261 11.5149 15.9041L23.2962 4.11157C23.6474 3.75474 23.6474 3.18267 23.2962 2.83149L20.736 0.265674C20.3849 -0.0911621 19.8071 -0.0911621 19.456 0.265674L10.8749 8.84673L7.73701 5.70317C7.38584 5.34634 6.80811 5.34634 6.45693 5.70317L3.89111 8.26899C3.53994 8.62583 3.53994 9.1979 3.89111 9.54907L10.2349 15.9041Z" fill="#263377"/>
</svg>
