<svg width="46" height="46" viewBox="0 0 46 46" fill="none" xmlns="http://www.w3.org/2000/svg">
<path d="M23 0.71875C10.6914 0.71875 0.71875 10.6914 0.71875 23C0.71875 35.3086 10.6914 45.2812 23 45.2812C35.3086 45.2812 45.2812 35.3086 45.2812 23C45.2812 10.6914 35.3086 0.71875 23 0.71875ZM31.3096 28.8398L29.5128 31.0859C29.3949 31.2334 29.249 31.3561 29.0837 31.4472C28.9183 31.5383 28.7366 31.5959 28.549 31.6167C28.3614 31.6376 28.1715 31.6213 27.9901 31.5688C27.8088 31.5162 27.6396 31.4285 27.4922 31.3105L21.4727 26.8435C21.0521 26.5068 20.7126 26.0798 20.4793 25.5941C20.246 25.1084 20.1249 24.5765 20.125 24.0377V10.0625C20.125 9.68125 20.2765 9.31562 20.546 9.04603C20.8156 8.77645 21.1813 8.625 21.5625 8.625H24.4375C24.8187 8.625 25.1844 8.77645 25.454 9.04603C25.7236 9.31562 25.875 9.68125 25.875 10.0625V23L31.0859 26.8184C31.2334 26.9364 31.3562 27.0823 31.4473 27.2477C31.5384 27.4132 31.5959 27.595 31.6167 27.7827C31.6375 27.9705 31.6211 28.1605 31.5684 28.3419C31.5157 28.5232 31.4278 28.6925 31.3096 28.8398Z" fill="#3CAA34"/>
</svg>
