<svg width="31" height="19" viewBox="0 0 31 19" fill="none" xmlns="http://www.w3.org/2000/svg">
<path d="M21.0558 0.125H16.895C16.5075 0.125 16.1345 0.271484 15.8488 0.535156L11.0873 4.92969C11.0825 4.93457 11.0777 4.94434 11.0728 4.94922C10.2688 5.71094 10.2833 6.92676 10.9711 7.68359C11.5862 8.3623 12.8795 8.54297 13.6884 7.81543C13.6933 7.81055 13.703 7.81055 13.7078 7.80566L17.578 4.23145C17.8928 3.94336 18.3869 3.96289 18.6727 4.28027C18.9633 4.59766 18.9391 5.09082 18.6242 5.38379L17.36 6.55078L24.4125 12.3223C24.553 12.4395 24.6789 12.5664 24.7952 12.6982V3.25L22.1505 0.583984C21.8647 0.291016 21.4675 0.125 21.0558 0.125ZM26.35 3.25977V14.1924C26.35 15.0566 27.0427 15.7549 27.9 15.7549H31V3.25977H26.35ZM28.675 14.1924C28.2487 14.1924 27.9 13.8408 27.9 13.4111C27.9 12.9814 28.2487 12.6299 28.675 12.6299C29.1012 12.6299 29.45 12.9814 29.45 13.4111C29.45 13.8408 29.1012 14.1924 28.675 14.1924ZM0 15.75H3.1C3.95734 15.75 4.65 15.0518 4.65 14.1875V3.25977H0V15.75ZM2.325 12.6299C2.75125 12.6299 3.1 12.9814 3.1 13.4111C3.1 13.8408 2.75125 14.1924 2.325 14.1924C1.89875 14.1924 1.55 13.8408 1.55 13.4111C1.55 12.9766 1.89875 12.6299 2.325 12.6299ZM23.4389 13.5381L16.2072 7.62012L14.7541 8.96289C13.3155 10.2861 11.1116 10.1592 9.82797 8.74805C8.525 7.3125 8.62672 5.09082 10.0411 3.78223L14.0033 0.125H9.94422C9.5325 0.125 9.14016 0.291016 8.84953 0.583984L6.2 3.25V14.1826H7.08641L11.47 18.1816C12.7972 19.2705 14.7492 19.0654 15.8294 17.7275L15.8391 17.7178L16.7061 18.4746C17.4762 19.1094 18.6145 18.9873 19.2394 18.2109L20.7603 16.3262L21.0219 16.541C21.6855 17.083 22.6639 16.9853 23.2016 16.3115L23.6617 15.7402C24.2042 15.0664 24.1025 14.085 23.4389 13.5381Z" fill="#263377"/>
</svg>
