<svg width="39" height="30" viewBox="0 0 39 30" fill="none" xmlns="http://www.w3.org/2000/svg">
<path d="M38.7643 13.9398C35.0925 5.75707 27.8233 0.220703 19.5 0.220703C11.1766 0.220703 3.90538 5.76094 0.235588 13.9406C0.0806997 14.2905 0 14.6772 0 15.0693C0 15.4614 0.0806997 15.848 0.235588 16.198C3.90741 24.3807 11.1766 29.9171 19.5 29.9171C27.8233 29.9171 35.0945 24.3769 38.7643 16.1972C38.9192 15.8473 38.9999 15.4606 38.9999 15.0685C38.9999 14.6764 38.9192 14.2898 38.7643 13.9398ZM19.5 26.205C17.5716 26.205 15.6865 25.5519 14.0832 24.3283C12.4798 23.1046 11.2301 21.3654 10.4921 19.3305C9.75418 17.2957 9.5611 15.0565 9.93731 12.8963C10.3135 10.7361 11.2421 8.75187 12.6057 7.19445C13.9692 5.63703 15.7065 4.57642 17.5978 4.14673C19.4891 3.71704 21.4495 3.93757 23.2311 4.78044C25.0127 5.62331 26.5354 7.05066 27.6068 8.88199C28.6781 10.7133 29.25 12.8664 29.25 15.0689C29.2506 16.5315 28.9988 17.9799 28.5091 19.3314C28.0193 20.6828 27.3011 21.9107 26.3956 22.9449C25.4901 23.9792 24.4151 24.7994 23.2319 25.3588C22.0487 25.9182 20.7805 26.2058 19.5 26.205ZM19.5 7.6448C18.9198 7.65406 18.3434 7.75265 17.7863 7.9379C18.2455 8.65067 18.4658 9.5278 18.4074 10.4102C18.3489 11.2927 18.0156 12.122 17.4677 12.7477C16.9198 13.3735 16.1938 13.7542 15.4212 13.821C14.6486 13.8878 13.8806 13.6361 13.2566 13.1116C12.9012 14.6069 12.9654 16.1919 13.44 17.6434C13.9146 19.0949 14.7758 20.3398 15.9024 21.203C17.0289 22.0662 18.3641 22.5042 19.72 22.4553C21.0759 22.4063 22.3842 21.873 23.4608 20.9303C24.5374 19.9876 25.3281 18.6831 25.7216 17.2002C26.115 15.7174 26.0915 14.131 25.6542 12.6642C25.2169 11.1975 24.3879 9.92434 23.2839 9.02391C22.1799 8.12349 20.8565 7.64115 19.5 7.6448Z" fill="#3CAA34"/>
</svg>
