<svg width="30" height="24" viewBox="0 0 30 24" fill="none" xmlns="http://www.w3.org/2000/svg">
<path d="M29.1211 12.9964L19.2773 22.8401C18.3984 23.719 16.875 23.1038 16.875 21.844V16.219H8.90625C8.12695 16.219 7.5 15.5921 7.5 14.8128V9.18777C7.5 8.40847 8.12695 7.78152 8.90625 7.78152H16.875V2.15652C16.875 0.902613 18.3926 0.28152 19.2773 1.16043L29.1211 11.0042C29.666 11.555 29.666 12.4456 29.1211 12.9964ZM11.25 22.5471V20.2034C11.25 19.8167 10.9336 19.5003 10.5469 19.5003H5.625C4.58789 19.5003 3.75 18.6624 3.75 17.6253V6.37527C3.75 5.33816 4.58789 4.50027 5.625 4.50027H10.5469C10.9336 4.50027 11.25 4.18386 11.25 3.79714V1.45339C11.25 1.06668 10.9336 0.75027 10.5469 0.75027H5.625C2.51953 0.75027 0 3.2698 0 6.37527V17.6253C0 20.7307 2.51953 23.2503 5.625 23.2503H10.5469C10.9336 23.2503 11.25 22.9339 11.25 22.5471Z" fill="#263377"/>
</svg>
