<svg width="41" height="41" viewBox="0 0 41 41" fill="none" xmlns="http://www.w3.org/2000/svg">
<path d="M20.5 0.8125C9.62789 0.8125 0.8125 9.62789 0.8125 20.5C0.8125 31.3721 9.62789 40.1875 20.5 40.1875C31.3721 40.1875 40.1875 31.3721 40.1875 20.5C40.1875 9.62789 31.3721 0.8125 20.5 0.8125ZM29.0035 14.0708L19.7485 26.9028C19.6192 27.0834 19.4486 27.2305 19.2511 27.332C19.0535 27.4334 18.8347 27.4864 18.6125 27.4864C18.3905 27.4864 18.1715 27.4334 17.974 27.332C17.7764 27.2305 17.606 27.0834 17.4765 26.9028L11.9965 19.309C11.8296 19.0761 11.9965 18.7509 12.2822 18.7509H14.3432C14.7915 18.7509 15.2178 18.9663 15.4814 19.3355L18.6103 23.6772L25.5186 14.0972C25.7822 13.7324 26.2041 13.5127 26.6568 13.5127H28.7178C29.0035 13.5127 29.1704 13.8379 29.0035 14.0708Z" fill="#FFA100"/>
</svg>
