<svg width="29" height="29" viewBox="0 0 29 29" fill="none" xmlns="http://www.w3.org/2000/svg">
<path d="M0.703052 8.38437L13.8969 14.3696C14.2821 14.5446 14.7176 14.5446 15.1028 14.3696L28.2967 8.38437C29.2341 7.959 29.2341 6.54241 28.2967 6.11704L15.1034 0.131263C14.9141 0.0447672 14.7085 0 14.5004 0C14.2924 0 14.0867 0.0447672 13.8975 0.131263L0.703052 6.11648C-0.234351 6.54185 -0.234351 7.959 0.703052 8.38437ZM28.2972 13.3846L25.007 11.8933L15.8516 16.0433C15.4234 16.2376 14.9686 16.3361 14.5001 16.3361C14.0317 16.3361 13.5775 16.2376 13.1487 16.0433L3.99387 11.8933L0.703052 13.3846C-0.234351 13.8094 -0.234351 15.2254 0.703052 15.6502L13.8969 21.6309C14.2821 21.8054 14.7176 21.8054 15.1028 21.6309L28.2972 15.6502C29.2346 15.2254 29.2346 13.8094 28.2972 13.3846ZM28.2972 20.6233L25.0194 19.1376L15.8516 23.2933C15.4234 23.4876 14.9686 23.5861 14.5001 23.5861C14.0317 23.5861 13.5775 23.4876 13.1487 23.2933L3.98141 19.1376L0.703052 20.6233C-0.234351 21.0481 -0.234351 22.4641 0.703052 22.8889L13.8969 28.8696C14.2821 29.044 14.7176 29.044 15.1028 28.8696L28.2972 22.8889C29.2346 22.4641 29.2346 21.0481 28.2972 20.6233Z" fill="#263377"/>
</svg>
