<svg width="27" height="30" viewBox="0 0 27 30" fill="none" xmlns="http://www.w3.org/2000/svg">
<path d="M19.2857 26.25V28.5938C19.2857 29.3704 18.6381 30 17.8393 30H1.44643C0.647578 30 0 29.3704 0 28.5938V7.03125C0 6.25459 0.647578 5.625 1.44643 5.625H5.78571V22.9688C5.78571 24.7781 7.2997 26.25 9.16071 26.25H19.2857ZM19.2857 6.09375V0H9.16071C8.36186 0 7.71429 0.62959 7.71429 1.40625V22.9688C7.71429 23.7454 8.36186 24.375 9.16071 24.375H25.5536C26.3524 24.375 27 23.7454 27 22.9688V7.5H20.7321C19.9366 7.5 19.2857 6.86719 19.2857 6.09375ZM26.5764 4.27564L22.6022 0.411855C22.3309 0.14815 21.963 1.94998e-06 21.5794 0L21.2143 0V5.625H27V5.26998C27 4.89704 26.8476 4.53936 26.5764 4.27564Z" fill="#263377"/>
</svg>
